<svg xmlns="http://www.w3.org/2000/svg" height="1000" width="1000"><path d="M680.5 557.2c-12.2-15.3-31-14.7-42.1 1.4-6.1 8.9-12.2 17.6-18.2 26.3-11.1 16.1-30.5 17.2-43.3 2.4-27.3-31.5-53.5-61.7-79.9-92-12.8-14.8-33.4-14.6-46 .3l-39.9 47.5c-12.6 15-31.5 19.4-42.2 9.9-10.7-9.5-25.3-9.5-32.6-.1-7.3 9.4-19.8 5.8-27.8-8-4.8-8.3-9.6-16.6-14.5-24.9-4.1-7.1-8.5-11.2-9.8-9.1-.9 1.4-1.6 2.6-2.2 3.8-26.4 49.3-86.1 156.8-93 155.2l-8.3 82h619c19.6 0 25.6-12.4 13.4-27.7l-132.6-167zm-80.3-125.4c51.3.2 91.3-38.6 92-89.2.7-52.2-39.3-94.2-90.3-95-52.1-.8-94.8 42.1-94.1 94.4.8 50 41.6 89.6 92.4 89.8zm298.2-296.3H101.6c-21.4 0-39.1 17.4-39.1 39.1v650.2c0 21.6 17.7 39.3 39.1 39.3h796.9c21.6 0 39.1-17.7 39.1-39.3V174.6c-.1-21.6-17.5-39.1-39.2-39.1zm-11.8 643.8c0 21.4-17.4 39.1-39.1 39.1H152.4c-21.4 0-39.1-17.7-39.1-39.1V220.4c0-21.6 17.7-39.1 39.1-39.1h695.2c21.6 0 39.1 17.4 39.1 39.1v558.9z"/></svg>